<svg width="210" height="147" viewBox="0 0 210 147" fill="none" xmlns="http://www.w3.org/2000/svg">
<path opacity="0.5" d="M41.1026 101.88L42.4593 102.658C43.2389 103.107 43.8864 103.752 44.3369 104.528C44.7874 105.304 45.0253 106.184 45.0266 107.08V109.364C45.0247 110.26 44.7867 111.139 44.3362 111.915C43.8857 112.69 43.2385 113.334 42.4593 113.783L25.0806 123.762C24.2998 124.21 23.4145 124.445 22.5133 124.445C21.6122 124.445 20.7268 124.21 19.946 123.762L2.56731 113.777C1.7881 113.328 1.14094 112.684 0.690442 111.909C0.239943 111.133 0.00187215 110.254 0 109.358V107.077C0.00187215 106.182 0.239943 105.302 0.690442 104.527C1.14094 103.751 1.7881 103.107 2.56731 102.658L3.92403 101.88L16.2481 94.8033L19.946 92.6841C20.7266 92.2359 21.612 92 22.5133 92C23.4146 92 24.3001 92.2359 25.0806 92.6841C25.0806 92.6841 27.3346 93.9754 28.7785 94.8033C33.5932 97.5636 36.2893 99.1167 41.1026 101.88Z" fill="#E7E7E7"/>
<path fill-rule="evenodd" clip-rule="evenodd" d="M89.4869 102.156L88.1302 101.377C86.188 100.262 84.5905 99.3441 83.0594 98.4644C80.7961 97.1641 78.678 95.9471 75.8062 94.3006C74.3622 93.4727 72.1083 92.1814 72.1083 92.1814C71.3277 91.7333 70.4423 91.4973 69.5409 91.4973C68.6396 91.4973 67.7542 91.7333 66.9736 92.1814L63.2757 94.3006L50.9517 101.377L49.595 102.156C48.8158 102.604 48.1686 103.249 47.7181 104.024C47.2676 104.8 47.0296 105.679 47.0277 106.575V108.856C47.0296 109.751 47.2676 110.631 47.7181 111.406C48.1686 112.181 48.8158 112.826 49.595 113.275L66.9736 123.26C67.7545 123.707 68.6398 123.942 69.5409 123.942C70.4421 123.942 71.3274 123.707 72.1083 123.26L89.4869 113.281C90.2661 112.832 90.9133 112.187 91.3638 111.412C91.8143 110.636 92.0523 109.757 92.0542 108.862V106.577C92.0529 105.681 91.815 104.801 91.3645 104.025C90.914 103.249 90.2666 102.605 89.4869 102.156ZM88.5984 103.686L85.7487 102.049L76.4067 96.6858L71.2198 93.7074C70.7091 93.4153 70.1303 93.2616 69.5412 93.2616C68.9521 93.2616 68.3733 93.4153 67.8626 93.7074L62.6756 96.6858L53.3336 102.049L50.4839 103.686C49.9741 103.98 49.5507 104.401 49.2561 104.909C48.9616 105.416 48.8061 105.992 48.8053 106.577V108.859C48.8061 109.444 48.9616 110.02 49.2561 110.527C49.5507 111.035 49.9741 111.456 50.4839 111.75L67.8626 121.729C68.3733 122.021 68.9521 122.174 69.5412 122.174C70.1303 122.174 70.7091 122.021 71.2198 121.729L88.5984 111.75C89.1083 111.456 89.5316 111.035 89.8262 110.527C90.1208 110.02 90.2763 109.444 90.2771 108.859V106.577C90.2763 105.992 90.1208 105.416 89.8262 104.909C89.5316 104.401 89.1083 103.98 88.5984 103.686Z" fill="#E7E7E7"/>
<path fill-rule="evenodd" clip-rule="evenodd" d="M113.378 33.5325L112.021 32.7538C110.079 31.639 108.482 30.7212 106.951 29.8415C104.687 28.5411 102.569 27.3241 99.6971 25.6775C98.2531 24.8497 95.9992 23.5584 95.9992 23.5584C95.2186 23.1102 94.3332 22.8743 93.4319 22.8743C92.5306 22.8743 91.6451 23.1102 90.8646 23.5584L87.1667 25.6775L74.8427 32.7538L73.4859 33.5325C72.7067 33.9814 72.0596 34.6257 71.6091 35.4011C71.1586 36.1765 70.9205 37.0559 70.9186 37.9515V40.2326C70.9205 41.1282 71.1586 42.0075 71.6091 42.783C72.0596 43.5584 72.7067 44.2027 73.4859 44.6516L90.8646 54.6365C91.6454 55.0839 92.5307 55.3194 93.4319 55.3194C94.333 55.3194 95.2184 55.0839 95.9992 54.6365L113.378 44.6575C114.157 44.2086 114.804 43.5643 115.255 42.7889C115.705 42.0134 115.943 41.1341 115.945 40.2385V37.9544C115.944 37.0584 115.706 36.1784 115.255 35.4024C114.805 34.6264 114.157 33.9816 113.378 33.5325ZM112.489 35.0633L109.64 33.4264L100.298 28.0627L95.1106 25.0843C94.5999 24.7923 94.0211 24.6385 93.432 24.6385C92.8429 24.6385 92.2641 24.7923 91.7534 25.0843L86.5664 28.0627L77.2244 33.4264L74.3747 35.0633C73.8649 35.3569 73.4415 35.7784 73.147 36.2857C72.8524 36.7931 72.6969 37.3685 72.6961 37.9543V40.2355C72.6969 40.8214 72.8524 41.3967 73.147 41.9041C73.4415 42.4114 73.8649 42.833 74.3747 43.1265L91.7534 53.1055C92.2641 53.3976 92.8429 53.5513 93.432 53.5513C94.0211 53.5513 94.5999 53.3976 95.1106 53.1055L112.489 43.1265C112.999 42.833 113.422 42.4114 113.717 41.9041C114.012 41.3967 114.167 40.8214 114.168 40.2355V37.9543C114.167 37.3685 114.012 36.7931 113.717 36.2857C113.422 35.7784 112.999 35.3569 112.489 35.0633Z" fill="#E7E7E7"/>
<path opacity="0.5" d="M159.048 78.5025L160.405 79.2813C161.185 79.7304 161.832 80.3752 162.283 81.1512C162.733 81.9271 162.971 82.8071 162.972 83.7032V85.9873C162.971 86.8828 162.732 87.7622 162.282 88.5376C161.831 89.313 161.184 89.9574 160.405 90.4063L143.026 100.385C142.246 100.833 141.36 101.068 140.459 101.068C139.558 101.068 138.673 100.833 137.892 100.385L120.513 90.4004C119.734 89.9515 119.087 89.3072 118.636 88.5317C118.186 87.7563 117.948 86.8769 117.946 85.9814V83.7002C117.948 82.8047 118.186 81.9253 118.636 81.1499C119.087 80.3745 119.734 79.7302 120.513 79.2813L121.87 78.5025L134.194 71.4263L137.892 69.3072C138.672 68.859 139.558 68.623 140.459 68.623C141.36 68.623 142.246 68.859 143.026 69.3072C143.026 69.3072 145.28 70.5985 146.724 71.4263C151.539 74.1866 154.235 75.7398 159.048 78.5025Z" fill="#E7E7E7"/>
<path d="M64.7419 32.7538L66.0986 33.5325C66.8783 33.9816 67.5257 34.6264 67.9762 35.4024C68.4268 36.1784 68.6646 37.0584 68.6659 37.9544V40.2385C68.6641 41.1341 68.426 42.0134 67.9755 42.7889C67.525 43.5643 66.8778 44.2086 66.0986 44.6575L48.72 54.6365C47.9392 55.0839 47.0538 55.3194 46.1527 55.3194C45.2515 55.3194 44.3662 55.0839 43.5854 54.6365L26.2067 44.6516C25.4275 44.2027 24.7803 43.5584 24.3298 42.783C23.8793 42.0075 23.6413 41.1282 23.6394 40.2326V37.9515C23.6413 37.0559 23.8793 36.1765 24.3298 35.4011C24.7803 34.6257 25.4275 33.9814 26.2067 33.5325L27.5634 32.7538L39.8875 25.6775L43.5854 23.5584C44.3659 23.1102 45.2514 22.8743 46.1527 22.8743C47.054 22.8743 47.9394 23.1102 48.72 23.5584C48.72 23.5584 50.9739 24.8497 52.4179 25.6775C57.2325 28.4379 59.9287 29.991 64.7419 32.7538Z" fill="#E7E7E7"/>
<path d="M111.77 78.5025L113.126 79.2813C113.906 79.7304 114.553 80.3752 115.004 81.1512C115.455 81.9271 115.692 82.8071 115.694 83.7032V85.9873C115.692 86.8828 115.454 87.7622 115.003 88.5376C114.553 89.313 113.906 89.9574 113.126 90.4063L95.7477 100.385C94.9669 100.833 94.0815 101.068 93.1804 101.068C92.2792 101.068 91.3939 100.833 90.6131 100.385L73.2344 90.4004C72.4552 89.9515 71.808 89.3072 71.3575 88.5317C70.907 87.7563 70.669 86.8769 70.6671 85.9814V83.7002C70.669 82.8047 70.907 81.9253 71.3575 81.1499C71.808 80.3745 72.4552 79.7302 73.2344 79.2813L74.5911 78.5025L86.9152 71.4263L90.6131 69.3072C91.3936 68.859 92.2791 68.623 93.1804 68.623C94.0817 68.623 94.9671 68.859 95.7477 69.3072C95.7477 69.3072 98.0016 70.5985 99.4456 71.4263C104.26 74.1866 106.956 75.7398 111.77 78.5025Z" fill="#E7E7E7"/>
<path opacity="0.5" d="M135.661 9.8795L137.017 10.6582C137.797 11.1074 138.444 11.7521 138.895 12.5281C139.345 13.3041 139.583 14.1841 139.585 15.0801V17.3642C139.583 18.2598 139.345 19.1392 138.894 19.9146C138.444 20.69 137.796 21.3343 137.017 21.7832L119.639 31.7622C118.858 32.2096 117.972 32.4451 117.071 32.4451C116.17 32.4451 115.285 32.2096 114.504 31.7622L97.1253 21.7773C96.3461 21.3284 95.699 20.6841 95.2485 19.9087C94.798 19.1333 94.5599 18.2539 94.558 17.3584V15.0772C94.5599 14.1816 94.798 13.3023 95.2485 12.5268C95.699 11.7514 96.3461 11.1071 97.1253 10.6582L98.4821 9.8795L110.806 2.80326L114.504 0.684123C115.285 0.235946 116.17 0 117.071 0C117.973 0 118.858 0.235946 119.639 0.684123C119.639 0.684123 121.893 1.97541 123.337 2.80326C128.151 5.56359 130.847 7.11674 135.661 9.8795Z" fill="#E7E7E7"/>
<path opacity="0.5" d="M64.7419 78.5025L66.0986 79.2813C66.8783 79.7304 67.5257 80.3752 67.9762 81.1512C68.4268 81.9271 68.6646 82.8071 68.6659 83.7032V85.9873C68.6641 86.8828 68.426 87.7622 67.9755 88.5376C67.525 89.313 66.8778 89.9574 66.0986 90.4063L48.72 100.385C47.9392 100.833 47.0538 101.068 46.1527 101.068C45.2515 101.068 44.3662 100.833 43.5854 100.385L26.2067 90.4004C25.4275 89.9515 24.7803 89.3072 24.3298 88.5317C23.8793 87.7563 23.6413 86.8769 23.6394 85.9814V83.7002C23.6413 82.8047 23.8793 81.9253 24.3298 81.1499C24.7803 80.3745 25.4275 79.7302 26.2067 79.2813L27.5634 78.5025L39.8875 71.4263L43.5854 69.3072C44.3659 68.859 45.2514 68.623 46.1527 68.623C47.054 68.623 47.9394 68.859 48.72 69.3072C48.72 69.3072 50.9739 70.5985 52.4179 71.4263C57.2325 74.1866 59.9287 75.7398 64.7419 78.5025Z" fill="#E7E7E7"/>
<path opacity="0.5" d="M111.77 124.251L113.126 125.03C113.906 125.479 114.553 126.124 115.004 126.9C115.455 127.676 115.692 128.556 115.694 129.452V131.736C115.692 132.631 115.454 133.511 115.003 134.286C114.553 135.062 113.906 135.706 113.126 136.155L95.7477 146.134C94.9669 146.581 94.0815 146.817 93.1804 146.817C92.2792 146.817 91.3939 146.581 90.6131 146.134L73.2344 136.149C72.4552 135.7 71.808 135.056 71.3575 134.28C70.907 133.505 70.669 132.625 70.6671 131.73V129.449C70.669 128.553 70.907 127.674 71.3575 126.898C71.808 126.123 72.4552 125.479 73.2344 125.03L74.5911 124.251L86.9152 117.175L90.6131 115.056C91.3936 114.608 92.2791 114.372 93.1804 114.372C94.0817 114.372 94.9671 114.608 95.7477 115.056C95.7477 115.056 98.0016 116.347 99.4456 117.175C104.26 119.935 106.956 121.488 111.77 124.251Z" fill="#E7E7E7"/>
<path d="M135.661 55.628L137.017 56.4068C137.797 56.8559 138.444 57.5007 138.895 58.2767C139.345 59.0526 139.583 59.9326 139.585 60.8287V63.1128C139.583 64.0083 139.345 64.8877 138.894 65.6631C138.444 66.4385 137.796 67.0829 137.017 67.5317L119.639 77.5108C118.858 77.9582 117.972 78.1937 117.071 78.1937C116.17 78.1937 115.285 77.9582 114.504 77.5108L97.1253 67.5259C96.3461 67.077 95.699 66.4326 95.2485 65.6572C94.798 64.8818 94.5599 64.0024 94.558 63.1069V60.8257C94.5599 59.9302 94.798 59.0508 95.2485 58.2754C95.699 57.5 96.3461 56.8556 97.1253 56.4068L98.4821 55.628L110.806 48.5518L114.504 46.4327C115.285 45.9845 116.17 45.7485 117.071 45.7485C117.973 45.7485 118.858 45.9845 119.639 46.4327C119.639 46.4327 121.893 47.7239 123.337 48.5518C128.151 51.3121 130.847 52.8653 135.661 55.628Z" fill="#E7E7E7"/>
<path d="M182.688 101.377L184.045 102.156C184.824 102.605 185.472 103.249 185.922 104.025C186.373 104.801 186.611 105.681 186.612 106.577V108.862C186.61 109.757 186.372 110.636 185.921 111.412C185.471 112.187 184.824 112.832 184.045 113.281L166.666 123.26C165.885 123.707 165 123.942 164.099 123.942C163.197 123.942 162.312 123.707 161.531 123.26L144.153 113.275C143.373 112.826 142.726 112.181 142.276 111.406C141.825 110.631 141.587 109.751 141.585 108.856V106.575C141.587 105.679 141.825 104.8 142.276 104.024C142.726 103.249 143.373 102.604 144.153 102.156L145.509 101.377L157.833 94.3006L161.531 92.1814C162.312 91.7333 163.197 91.4973 164.099 91.4973C165 91.4973 165.885 91.7333 166.666 92.1814C166.666 92.1814 168.92 93.4727 170.364 94.3006C175.178 97.0609 177.875 98.6141 182.688 101.377Z" fill="#E7E7E7"/>
<path d="M182.688 55.628L184.045 56.4068C184.824 56.8559 185.472 57.5007 185.922 58.2767C186.373 59.0526 186.611 59.9326 186.612 60.8287V63.1128C186.61 64.0083 186.372 64.8877 185.921 65.6631C185.471 66.4385 184.824 67.0829 184.045 67.5317L166.666 77.5108C165.885 77.9582 165 78.1937 164.099 78.1937C163.197 78.1937 162.312 77.9582 161.531 77.5108L144.153 67.5259C143.373 67.077 142.726 66.4326 142.276 65.6572C141.825 64.8818 141.587 64.0024 141.585 63.1069V60.8257C141.587 59.9302 141.825 59.0508 142.276 58.2754C142.726 57.5 143.373 56.8556 144.153 56.4068L145.509 55.628L157.833 48.5518L161.531 46.4327C162.312 45.9845 163.197 45.7485 164.099 45.7485C165 45.7485 165.885 45.9845 166.666 46.4327C166.666 46.4327 168.92 47.7239 170.364 48.5518C175.178 51.3121 177.875 52.8653 182.688 55.628Z" fill="#E7E7E7"/>
<path fill-rule="evenodd" clip-rule="evenodd" d="M89.4869 56.4068L88.1302 55.628C86.1879 54.5132 84.5903 53.5953 83.0592 52.7156C80.796 51.4152 78.6779 50.1982 75.8062 48.5518C74.3622 47.7239 72.1083 46.4327 72.1083 46.4327C71.3277 45.9845 70.4423 45.7485 69.5409 45.7485C68.6396 45.7485 67.7542 45.9845 66.9736 46.4327L63.2757 48.5518L50.9517 55.628L49.595 56.4068C48.8158 56.8556 48.1686 57.5 47.7181 58.2754C47.2676 59.0508 47.0296 59.9302 47.0277 60.8257V63.1069C47.0296 64.0024 47.2676 64.8818 47.7181 65.6572C48.1686 66.4326 48.8158 67.077 49.595 67.5259L66.9736 77.5108C67.7545 77.9582 68.6398 78.1937 69.5409 78.1937C70.4421 78.1937 71.3274 77.9582 72.1083 77.5108L89.4869 67.5317C90.2661 67.0829 90.9133 66.4385 91.3638 65.6631C91.8143 64.8877 92.0523 64.0083 92.0542 63.1128V60.8287C92.0529 59.9326 91.815 59.0526 91.3645 58.2767C90.914 57.5007 90.2666 56.8559 89.4869 56.4068ZM88.5984 57.9377L85.7487 56.3007L76.4067 50.9371L71.2198 47.9587C70.7091 47.6666 70.1303 47.5129 69.5412 47.5129C68.9521 47.5129 68.3733 47.6666 67.8626 47.9587L62.6756 50.9371L53.3336 56.3007L50.4839 57.9377C49.9741 58.2312 49.5507 58.6528 49.2561 59.1601C48.9616 59.6675 48.8061 60.2428 48.8053 60.8287V63.1099C48.8061 63.6957 48.9616 64.2711 49.2561 64.7785C49.5507 65.2858 49.9741 65.7073 50.4839 66.0009L67.8626 75.9799C68.3733 76.2719 68.9521 76.4257 69.5412 76.4257C70.1303 76.4257 70.7091 76.2719 71.2198 75.9799L88.5984 66.0009C89.1083 65.7073 89.5316 65.2858 89.8262 64.7785C90.1208 64.2711 90.2763 63.6957 90.2771 63.1099V60.8287C90.2763 60.2428 90.1208 59.6675 89.8262 59.1601C89.5316 58.6528 89.1083 58.2312 88.5984 57.9377Z" fill="#E7E7E7"/>
<path fill-rule="evenodd" clip-rule="evenodd" d="M136.514 102.156L135.157 101.377C133.215 100.262 131.618 99.3441 130.086 98.4644C127.823 97.1641 125.705 95.9471 122.833 94.3006C121.389 93.4727 119.135 92.1814 119.135 92.1814C118.355 91.7333 117.469 91.4973 116.568 91.4973C115.667 91.4973 114.781 91.7333 114.001 92.1814L110.303 94.3006L97.9788 101.377L96.622 102.156C95.8428 102.604 95.1957 103.249 94.7452 104.024C94.2947 104.8 94.0566 105.679 94.0547 106.575V108.856C94.0566 109.751 94.2947 110.631 94.7452 111.406C95.1957 112.181 95.8428 112.826 96.622 113.275L114.001 123.26C114.782 123.707 115.667 123.942 116.568 123.942C117.469 123.942 118.354 123.707 119.135 123.26L136.514 113.281C137.293 112.832 137.94 112.187 138.391 111.412C138.841 110.636 139.079 109.757 139.081 108.862V106.577C139.08 105.681 138.842 104.801 138.392 104.025C137.941 103.249 137.294 102.605 136.514 102.156ZM135.626 103.686L132.776 102.049L123.434 96.6858L118.247 93.7074C117.736 93.4153 117.157 93.2616 116.568 93.2616C115.979 93.2616 115.4 93.4153 114.89 93.7074L109.703 96.6858L100.361 102.049L97.5109 103.686C97.0011 103.98 96.5777 104.401 96.2832 104.909C95.9886 105.416 95.8331 105.992 95.8323 106.577V108.859C95.8331 109.444 95.9886 110.02 96.2832 110.527C96.5777 111.035 97.0011 111.456 97.5109 111.75L114.89 121.729C115.4 122.021 115.979 122.174 116.568 122.174C117.157 122.174 117.736 122.021 118.247 121.729L135.626 111.75C136.135 111.456 136.559 111.035 136.853 110.527C137.148 110.02 137.303 109.444 137.304 108.859V106.577C137.303 105.992 137.148 105.416 136.853 104.909C136.559 104.401 136.135 103.98 135.626 103.686Z" fill="#E7E7E7"/>
<path fill-rule="evenodd" clip-rule="evenodd" d="M160.405 33.5325L159.048 32.7538C157.106 31.6389 155.509 30.721 153.978 29.8413C151.714 28.541 149.596 27.324 146.724 25.6775C145.28 24.8497 143.026 23.5584 143.026 23.5584C142.246 23.1102 141.36 22.8743 140.459 22.8743C139.558 22.8743 138.672 23.1102 137.892 23.5584L134.194 25.6775L121.87 32.7538L120.513 33.5325C119.734 33.9814 119.087 34.6257 118.636 35.4011C118.186 36.1765 117.948 37.0559 117.946 37.9515V40.2326C117.948 41.1282 118.186 42.0075 118.636 42.783C119.087 43.5584 119.734 44.2027 120.513 44.6516L137.892 54.6365C138.673 55.0839 139.558 55.3194 140.459 55.3194C141.36 55.3194 142.246 55.0839 143.026 54.6365L160.405 44.6575C161.184 44.2086 161.831 43.5643 162.282 42.7889C162.732 42.0134 162.971 41.1341 162.972 40.2385V37.9544C162.971 37.0584 162.733 36.1784 162.283 35.4024C161.832 34.6264 161.185 33.9816 160.405 33.5325ZM159.517 35.0633L156.667 33.4264L147.325 28.0627L142.138 25.0843C141.627 24.7923 141.048 24.6385 140.459 24.6385C139.87 24.6385 139.291 24.7923 138.781 25.0843L133.594 28.0627L124.252 33.4264L121.402 35.0633C120.892 35.3569 120.469 35.7784 120.174 36.2857C119.88 36.7931 119.724 37.3685 119.723 37.9543V40.2355C119.724 40.8214 119.88 41.3967 120.174 41.9041C120.469 42.4114 120.892 42.833 121.402 43.1265L138.781 53.1055C139.291 53.3976 139.87 53.5513 140.459 53.5513C141.048 53.5513 141.627 53.3976 142.138 53.1055L159.517 43.1265C160.026 42.833 160.45 42.4114 160.744 41.9041C161.039 41.3967 161.194 40.8214 161.195 40.2355V37.9543C161.194 37.3685 161.039 36.7931 160.744 36.2857C160.45 35.7784 160.026 35.3569 159.517 35.0633Z" fill="#E7E7E7"/>
<path fill-rule="evenodd" clip-rule="evenodd" d="M207.433 79.2813L206.076 78.5025C204.134 77.3878 202.536 76.4699 201.005 75.5903C198.742 74.2899 196.624 73.0728 193.752 71.4263C192.308 70.5985 190.054 69.3072 190.054 69.3072C189.274 68.859 188.388 68.623 187.487 68.623C186.585 68.623 185.7 68.859 184.919 69.3072L181.222 71.4263L168.898 78.5025L167.541 79.2813C166.762 79.7302 166.115 80.3745 165.664 81.1499C165.214 81.9253 164.975 82.8047 164.974 83.7002V85.9814C164.975 86.8769 165.214 87.7563 165.664 88.5317C166.115 89.3072 166.762 89.9515 167.541 90.4004L184.919 100.385C185.7 100.833 186.586 101.068 187.487 101.068C188.388 101.068 189.273 100.833 190.054 100.385L207.433 90.4063C208.212 89.9574 208.859 89.313 209.31 88.5376C209.76 87.7622 209.998 86.8828 210 85.9873V83.7032C209.999 82.8071 209.761 81.9271 209.31 81.1512C208.86 80.3752 208.212 79.7304 207.433 79.2813ZM206.544 80.8122L203.694 79.1752L194.352 73.8115L189.165 70.8332C188.655 70.5411 188.076 70.3874 187.487 70.3874C186.898 70.3874 186.319 70.5411 185.808 70.8332L180.621 73.8115L171.279 79.1752L168.429 80.8122C167.92 81.1057 167.496 81.5272 167.202 82.0346C166.907 82.5419 166.752 83.1173 166.751 83.7032V85.9843C166.752 86.5702 166.907 87.1456 167.202 87.6529C167.496 88.1602 167.92 88.5818 168.429 88.8753L185.808 98.8543C186.319 99.1464 186.898 99.3001 187.487 99.3001C188.076 99.3001 188.655 99.1464 189.165 98.8543L206.544 88.8753C207.054 88.5818 207.477 88.1602 207.772 87.6529C208.066 87.1456 208.222 86.5702 208.223 85.9843V83.7032C208.222 83.1173 208.066 82.5419 207.772 82.0346C207.477 81.5272 207.054 81.1057 206.544 80.8122Z" fill="#E7E7E7"/>
</svg>
