<svg width="644" height="635" viewBox="0 0 644 635" fill="none" xmlns="http://www.w3.org/2000/svg">
<path d="M0.399902 291.8V158.1C0.399902 141.7 9.09993 126.6 23.2999 118.5L139.1 51.7L277.8 131.8V291.9L139.1 372L0.399902 291.8Z" fill="#B5A5B7"/>
<path d="M643.8 291.8V158.1C643.8 141.7 635.1 126.6 620.9 118.5L505.1 51.7L366.4 131.8V291.9L505.1 372L643.8 291.8Z" fill="#676077"/>
<path d="M505.2 51.7L613.5 114.2L634 137.4L366.5 291.8V131.7L505.2 51.7Z" fill="#B5A5B7"/>
<path d="M505.2 63.2L616 127.2C627 133.6 633.9 145.4 633.9 158.2V286L505.2 360.3L376.5 286V137.5L505.2 63.2ZM505.2 51.7L366.5 131.8V291.9L505.2 372L643.9 291.9V158.1C643.9 141.7 635.2 126.6 621 118.5L505.2 51.7Z" fill="#B5A5B7"/>
<path d="M139 51.7L36.6001 110.8L28.4001 115.5L10.1001 137.3L277.7 291.8V131.7L139 51.7Z" fill="#FEF6FA"/>
<path d="M139 63.2L267.7 137.5V286L139 360.3L10.3 286V158.1C10.3 145.4 17.2 133.5 28.2 127.1L139 63.2ZM139 51.7L23.2 118.5C8.99995 126.7 0.300049 141.8 0.300049 158.1V291.8L139 371.9L277.7 291.8V131.7L139 51.7Z" fill="#B5A5B7"/>
<path d="M47.6001 476V159L322.1 0.5L596.6 159V476L322.1 634.4L47.6001 476Z" fill="#B5A5B7"/>
<path d="M322.1 634.4L596.6 475.9L547.6 447.6L342.1 566.3C329.7 573.4 322.1 586.6 322.1 600.9V634.4Z" fill="#676077"/>
<path d="M47.6001 476L322.1 634.5V601C322.1 586.7 314.5 573.5 302.1 566.4L116.5 459.3C104.1 452.2 88.9001 452.2 76.6001 459.3L47.6001 476Z" fill="#A88696"/>
<path d="M322.1 34V4L51.8 161.4L76.6 175.7C89 182.8 104.2 182.8 116.5 175.7L302.1 68.6C314.5 61.5 322.1 48.3 322.1 34Z" fill="#FEF6FA"/>
<path d="M593.5 474.1L592.5 161.4L567.7 175.7C555.3 182.8 547.7 196 547.7 210.3V447.6L593.5 474.1Z" fill="#676077"/>
<path d="M322.1 12L586.6 164.7V470.1L322.1 622.8L57.6001 470.1V164.7L322.1 12ZM322.1 0.5L47.6001 159V476L322.1 634.5L596.6 476V159L322.1 0.5Z" fill="#B5A5B7"/>
<path d="M498.9 197.4L371.3 123.7C356.4 115.1 339.4 110.5 322.2 110.5C305 110.5 288 115.1 273.1 123.7L145.5 197.4C135.5 203.2 129.3 213.9 129.3 225.4V296.9C129.3 322.5 139.8 347 158.1 364.7V369.9C158.1 406.4 177.7 440.4 209.2 458.6L322.2 523.9L435.2 458.6C467.6 439.9 485.7 406.6 486.3 364.7C504.7 346.9 515.1 322.5 515.1 296.9V225.4C515.1 213.9 508.9 203.2 498.9 197.4Z" fill="#1C1128"/>
<path d="M322.3 323.3L167.3 236.1V297C167.3 317.1 178 335.7 195.4 345.7L322.2 418.9L449 345.7C466.4 335.6 477.1 317.1 477.1 297V236.1L322.3 323.3Z" fill="#342A44"/>
<path d="M322.3 419L196.2 346.2V370.1C196.2 393.2 208.4 414.4 228.3 425.9L322.3 480.2L416.3 425.9C436.2 414.4 448.4 393.2 448.4 362.9V346.2L322.3 419Z" fill="#342A44"/>
<path d="M467.3 253.3V297.1C467.3 313.6 458.4 328.9 444.2 337.2L443.5 337.6L438.5 340.5V346.3V363C438.5 388.3 429.1 407.1 411.4 417.3L322.4 468.7L233.4 417.3C216.7 407.7 206.3 389.6 206.3 370.2V346.3V340.5L201.3 337.6L200.6 337.2C186.3 329 177.5 313.6 177.5 297.1V253.3L317.6 332.1L322.5 334.9L327.4 332.1L467.3 253.3ZM477.3 236.2L322.3 323.4L167.3 236.2V297.1C167.3 317.2 178 335.8 195.4 345.8L196.1 346.2V370.1C196.1 393.2 208.3 414.4 228.2 425.9L322.2 480.2L416.2 425.9C436.1 414.4 448.3 393.2 448.3 362.9V346.2L449 345.8C466.4 335.7 477.1 317.2 477.1 297.1V236.2H477.3Z" fill="#443B59"/>
<path d="M190.6 215.2L322.1 291.1L453.6 215.2L352.2 156.7C333.5 145.9 310.6 145.9 291.9 156.7L190.6 215.2Z" fill="#698445"/>
<path d="M352.3 156.6C343 151.2 332.6 148.5 322.2 148.5V291.1L453.7 215.2L352.3 156.6Z" fill="#1F4927"/>
<path d="M322.1 236L195.9 218.2L322.1 291.1L448.3 218.2L322.1 236Z" fill="#143321"/>
<path d="M322.1 158.5C330.9 158.5 339.6 160.8 347.2 165.2L433.6 215.1L322.1 279.5L210.6 215.1L297 165.2C304.6 160.9 313.3 158.5 322.1 158.5ZM322.1 148.5C311.7 148.5 301.3 151.2 292 156.6L190.6 215.1L322.1 291L453.6 215.1L352.2 156.6C342.9 151.2 332.5 148.5 322.1 148.5Z" fill="#2B5E36"/>
</svg>

